# xmcd
# 
# Track frame offsets:
#     150
#     17838
#     38981
#     55067
#     74847
#     94323
#     108895
#     127510
#     151882
#     172477
#     189522
# 
# Disc length: 2795
# 
# Revision: 1
# Processed by: cddbd v1.5.2PL0 Copyright (c) Steve Scherf et al.
# Submitted via: fre:ac v1.0.27
# 
DISCID=940ae90b
DTITLE=Justin Roth - Now You Kow
DYEAR=2011
DGENRE=American Folk
TTITLE0=The Winter
TTITLE1=Now You Know
TTITLE2=Surrender
TTITLE3=Out Of The Blue
TTITLE4=The Last Time
TTITLE5=Spaghetti Junction
TTITLE6=Trembling Like A Train
TTITLE7=The Siskiyou Line
TTITLE8=Forgiveness
TTITLE9=There And Back Again
TTITLE10=Love's Not Through With Me Yet
EXTD=
EXTT0=
EXTT1=
EXTT2=
EXTT3=
EXTT4=
EXTT5=
EXTT6=
EXTT7=
EXTT8=
EXTT9=
EXTT10=
PLAYORDER=
